<svg xmlns="http://www.w3.org/2000/svg" width="14" height="17" viewBox="0 0 14 17">
    <g fill="none" fill-rule="evenodd">
        <path stroke="#000" d="M12 4.5c.414 0 .79.168 1.06.44.272.27.44.646.44 1.06h0v4c0 1.519-.616 2.894-1.61 3.89-.996.994-2.371 1.61-3.89 1.61h0-2c-1.519 0-2.894-.616-3.89-1.61C1.117 12.893.5 11.518.5 10h0V6c0-.414.168-.79.44-1.06.27-.272.646-.44 1.06-.44h0z" transform="translate(0 1)"/>
        <path fill-rule="nonzero" stroke="#000" d="M11 8c0-4.418-1.79-8-4-8S3 3.582 3 8" transform="translate(0 1)"/>
        <text fill="#000" font-family="ApercuPro-Bold, Apercu Pro" font-size="8" font-weight="bold" transform="translate(0 1)">
            <tspan x="5" y="13">0</tspan>
        </text>
    </g>
</svg>
